# xmcd
#
# Track frame offsets:
#	150
#	19081
#	34979
#	57756
#	72552
#	93243
#	106701
#	120794
#	142602
#	156393
#	176145
#	191761
#
# Disc length: 2765 seconds
#
# Revision: 1
# Processed by: cddbd v1.5.2PL0 Copyright (c) Steve Scherf et al.
# Submitted via: audiograbber 1.83.01
#
DISCID=990acb0c
DTITLE=Billie Joe and Norah - Foreverly
DYEAR=2013
DGENRE=Country
TTITLE0=Roving Gambler
TTITLE1=Long Time Gone
TTITLE2=Lightning Express
TTITLE3=Silver Haired Daddy of Mine
TTITLE4=Down in the Willow Garden
TTITLE5=Who's Gonna Shoe Your Pretty Little Feet?
TTITLE6=Oh So Many Years
TTITLE7=Barbara Allen
TTITLE8=Rockin' Alone (In an Old Rockin' Chair)
TTITLE9=I'm Here To Get My Baby Out of Jail
TTITLE10=Kentucky
TTITLE11=Put My Little Shoes Away
EXTD=
EXTT0=
EXTT1=
EXTT2=
EXTT3=
EXTT4=
EXTT5=
EXTT6=
EXTT7=
EXTT8=
EXTT9=
EXTT10=
EXTT11=
PLAYORDER=
